<mxfile host="app.diagrams.net" modified="2021-09-29T14:50:38.962Z" agent="5.0 (Windows NT 10.0; Win64; x64) AppleWebKit/537.36 (KHTML, like Gecko) Chrome/94.0.4606.61 Safari/537.36" etag="Ej5XwMEbRUQWaPTM7A1I" version="15.3.8" type="github">
  <diagram id="prtHgNgQTEPvFCAcTncT" name="Page-1">
    <mxGraphModel dx="1422" dy="1874" grid="1" gridSize="10" guides="1" tooltips="1" connect="1" arrows="1" fold="1" page="1" pageScale="1" pageWidth="827" pageHeight="1169" math="0" shadow="0">
      <root>
        <mxCell id="0" />
        <mxCell id="1" parent="0" />
        <mxCell id="2TjgyCzb8Htl5xwf5OyU-55" value="" style="rounded=0;html=1;strokeColor=none;fillColor=#d0cee2;whiteSpace=wrap;" parent="1" vertex="1">
          <mxGeometry x="103" y="90" width="170" height="430" as="geometry" />
        </mxCell>
        <mxCell id="2TjgyCzb8Htl5xwf5OyU-54" value="" style="rounded=0;whiteSpace=wrap;html=1;strokeColor=none;fillColor=#b1ddf0;" parent="1" vertex="1">
          <mxGeometry x="298" y="90" width="170" height="430" as="geometry" />
        </mxCell>
        <mxCell id="2TjgyCzb8Htl5xwf5OyU-53" value="" style="rounded=0;whiteSpace=wrap;html=1;fillColor=#fad7ac;strokeColor=none;" parent="1" vertex="1">
          <mxGeometry x="875" y="90" width="170" height="480" as="geometry" />
        </mxCell>
        <mxCell id="2TjgyCzb8Htl5xwf5OyU-52" value="" style="rounded=0;whiteSpace=wrap;html=1;fillColor=#bac8d3;strokeColor=none;" parent="1" vertex="1">
          <mxGeometry x="682" y="90" width="170" height="480" as="geometry" />
        </mxCell>
        <mxCell id="2TjgyCzb8Htl5xwf5OyU-50" value="" style="rounded=0;whiteSpace=wrap;html=1;strokeColor=none;fillColor=#fad9d5;" parent="1" vertex="1">
          <mxGeometry x="490" y="90" width="170" height="480" as="geometry" />
        </mxCell>
        <mxCell id="O-F3Ail7RcBTmuWhiVfL-2" value="Shared Intellectual Assets" style="rounded=1;whiteSpace=wrap;html=1;fillColor=#e1d5e7;strokeColor=#9673a6;" parent="1" vertex="1">
          <mxGeometry x="128" y="310" width="120" height="60" as="geometry" />
        </mxCell>
        <mxCell id="2TjgyCzb8Htl5xwf5OyU-14" style="edgeStyle=orthogonalEdgeStyle;rounded=0;orthogonalLoop=1;jettySize=auto;html=1;exitX=0.5;exitY=1;exitDx=0;exitDy=0;entryX=0.5;entryY=0;entryDx=0;entryDy=0;" parent="1" source="O-F3Ail7RcBTmuWhiVfL-3" target="O-F3Ail7RcBTmuWhiVfL-4" edge="1">
          <mxGeometry relative="1" as="geometry" />
        </mxCell>
        <mxCell id="2TjgyCzb8Htl5xwf5OyU-15" style="edgeStyle=orthogonalEdgeStyle;rounded=0;orthogonalLoop=1;jettySize=auto;html=1;exitX=0.5;exitY=0;exitDx=0;exitDy=0;entryX=0.5;entryY=1;entryDx=0;entryDy=0;" parent="1" source="O-F3Ail7RcBTmuWhiVfL-3" target="O-F3Ail7RcBTmuWhiVfL-5" edge="1">
          <mxGeometry relative="1" as="geometry" />
        </mxCell>
        <mxCell id="g0r0Y4DcRBQkHfUcTOGN-6" style="edgeStyle=orthogonalEdgeStyle;rounded=1;orthogonalLoop=1;jettySize=auto;html=1;exitX=0;exitY=0.5;exitDx=0;exitDy=0;entryX=1;entryY=0.5;entryDx=0;entryDy=0;" edge="1" parent="1" source="O-F3Ail7RcBTmuWhiVfL-3" target="O-F3Ail7RcBTmuWhiVfL-14">
          <mxGeometry relative="1" as="geometry">
            <Array as="points">
              <mxPoint x="293" y="370" />
              <mxPoint x="293" y="440" />
            </Array>
          </mxGeometry>
        </mxCell>
        <mxCell id="O-F3Ail7RcBTmuWhiVfL-3" value="FireBIM ontology" style="rounded=1;whiteSpace=wrap;html=1;fillColor=#dae8fc;strokeColor=#6c8ebf;strokeWidth=3;" parent="1" vertex="1">
          <mxGeometry x="323" y="340" width="120" height="60" as="geometry" />
        </mxCell>
        <mxCell id="g0r0Y4DcRBQkHfUcTOGN-7" style="edgeStyle=orthogonalEdgeStyle;rounded=1;orthogonalLoop=1;jettySize=auto;html=1;exitX=0;exitY=0.75;exitDx=0;exitDy=0;entryX=1;entryY=0.75;entryDx=0;entryDy=0;" edge="1" parent="1" source="O-F3Ail7RcBTmuWhiVfL-4" target="O-F3Ail7RcBTmuWhiVfL-14">
          <mxGeometry relative="1" as="geometry" />
        </mxCell>
        <mxCell id="O-F3Ail7RcBTmuWhiVfL-4" value="FireBIM exchange format" style="rounded=1;whiteSpace=wrap;html=1;fillColor=#dae8fc;strokeColor=#6c8ebf;strokeWidth=3;" parent="1" vertex="1">
          <mxGeometry x="323" y="420" width="120" height="60" as="geometry" />
        </mxCell>
        <mxCell id="2TjgyCzb8Htl5xwf5OyU-16" style="edgeStyle=orthogonalEdgeStyle;rounded=0;orthogonalLoop=1;jettySize=auto;html=1;exitX=0.5;exitY=0;exitDx=0;exitDy=0;entryX=0.5;entryY=1;entryDx=0;entryDy=0;" parent="1" source="O-F3Ail7RcBTmuWhiVfL-5" target="O-F3Ail7RcBTmuWhiVfL-6" edge="1">
          <mxGeometry relative="1" as="geometry" />
        </mxCell>
        <mxCell id="g0r0Y4DcRBQkHfUcTOGN-5" style="edgeStyle=orthogonalEdgeStyle;rounded=1;orthogonalLoop=1;jettySize=auto;html=1;exitX=0;exitY=0.75;exitDx=0;exitDy=0;entryX=1;entryY=0.25;entryDx=0;entryDy=0;" edge="1" parent="1" source="O-F3Ail7RcBTmuWhiVfL-5" target="O-F3Ail7RcBTmuWhiVfL-14">
          <mxGeometry relative="1" as="geometry" />
        </mxCell>
        <mxCell id="g0r0Y4DcRBQkHfUcTOGN-9" style="edgeStyle=orthogonalEdgeStyle;rounded=1;orthogonalLoop=1;jettySize=auto;html=1;exitX=0;exitY=0.25;exitDx=0;exitDy=0;entryX=1;entryY=0.5;entryDx=0;entryDy=0;dashed=1;" edge="1" parent="1" source="O-F3Ail7RcBTmuWhiVfL-5" target="O-F3Ail7RcBTmuWhiVfL-2">
          <mxGeometry relative="1" as="geometry">
            <Array as="points">
              <mxPoint x="273" y="275" />
              <mxPoint x="273" y="340" />
            </Array>
          </mxGeometry>
        </mxCell>
        <mxCell id="O-F3Ail7RcBTmuWhiVfL-5" value="FireBIM server" style="rounded=1;whiteSpace=wrap;html=1;fillColor=#dae8fc;strokeColor=#6c8ebf;strokeWidth=3;" parent="1" vertex="1">
          <mxGeometry x="323" y="260" width="120" height="60" as="geometry" />
        </mxCell>
        <mxCell id="g0r0Y4DcRBQkHfUcTOGN-3" style="edgeStyle=orthogonalEdgeStyle;rounded=1;orthogonalLoop=1;jettySize=auto;html=1;exitX=1;exitY=0.5;exitDx=0;exitDy=0;entryX=0;entryY=0.5;entryDx=0;entryDy=0;dashed=1;" edge="1" parent="1" source="O-F3Ail7RcBTmuWhiVfL-6" target="O-F3Ail7RcBTmuWhiVfL-11">
          <mxGeometry relative="1" as="geometry" />
        </mxCell>
        <mxCell id="g0r0Y4DcRBQkHfUcTOGN-8" style="edgeStyle=orthogonalEdgeStyle;rounded=1;orthogonalLoop=1;jettySize=auto;html=1;exitX=0;exitY=0.5;exitDx=0;exitDy=0;dashed=1;" edge="1" parent="1" source="O-F3Ail7RcBTmuWhiVfL-6" target="O-F3Ail7RcBTmuWhiVfL-15">
          <mxGeometry relative="1" as="geometry">
            <Array as="points">
              <mxPoint x="273" y="210" />
              <mxPoint x="273" y="230" />
            </Array>
          </mxGeometry>
        </mxCell>
        <mxCell id="O-F3Ail7RcBTmuWhiVfL-6" value="FireBIM Web service" style="rounded=1;whiteSpace=wrap;html=1;fillColor=#dae8fc;strokeColor=#6c8ebf;strokeWidth=3;" parent="1" vertex="1">
          <mxGeometry x="323" y="180" width="120" height="60" as="geometry" />
        </mxCell>
        <mxCell id="O-F3Ail7RcBTmuWhiVfL-10" value="Operation &amp;amp; services" style="rounded=1;whiteSpace=wrap;html=1;arcSize=50;fillColor=none;strokeColor=none;fontStyle=1;fontSize=15;" parent="1" vertex="1">
          <mxGeometry x="510" y="130" width="120" height="30" as="geometry" />
        </mxCell>
        <mxCell id="2TjgyCzb8Htl5xwf5OyU-39" style="edgeStyle=orthogonalEdgeStyle;rounded=1;orthogonalLoop=1;jettySize=auto;html=1;exitX=1;exitY=0.5;exitDx=0;exitDy=0;entryX=0;entryY=0.25;entryDx=0;entryDy=0;dashed=1;" parent="1" source="O-F3Ail7RcBTmuWhiVfL-11" target="O-F3Ail7RcBTmuWhiVfL-28" edge="1">
          <mxGeometry relative="1" as="geometry">
            <Array as="points">
              <mxPoint x="650" y="240" />
              <mxPoint x="650" y="270" />
              <mxPoint x="830" y="270" />
              <mxPoint x="830" y="305" />
            </Array>
          </mxGeometry>
        </mxCell>
        <mxCell id="O-F3Ail7RcBTmuWhiVfL-11" value="Fire Consulting" style="rounded=1;whiteSpace=wrap;html=1;fillColor=#ffe6cc;strokeColor=#d79b00;" parent="1" vertex="1">
          <mxGeometry x="510" y="210" width="120" height="60" as="geometry" />
        </mxCell>
        <mxCell id="2TjgyCzb8Htl5xwf5OyU-60" style="edgeStyle=orthogonalEdgeStyle;rounded=1;jumpStyle=none;orthogonalLoop=1;jettySize=auto;html=1;exitX=0;exitY=0.25;exitDx=0;exitDy=0;entryX=1;entryY=0.25;entryDx=0;entryDy=0;dashed=1;strokeColor=default;strokeWidth=1;" parent="1" source="O-F3Ail7RcBTmuWhiVfL-12" target="O-F3Ail7RcBTmuWhiVfL-5" edge="1">
          <mxGeometry relative="1" as="geometry" />
        </mxCell>
        <mxCell id="2TjgyCzb8Htl5xwf5OyU-61" style="edgeStyle=orthogonalEdgeStyle;rounded=1;jumpStyle=none;orthogonalLoop=1;jettySize=auto;html=1;exitX=0;exitY=0.75;exitDx=0;exitDy=0;entryX=0.853;entryY=0.695;entryDx=0;entryDy=0;entryPerimeter=0;strokeColor=default;strokeWidth=1;" parent="1" source="O-F3Ail7RcBTmuWhiVfL-12" target="2TjgyCzb8Htl5xwf5OyU-54" edge="1">
          <mxGeometry relative="1" as="geometry" />
        </mxCell>
        <mxCell id="O-F3Ail7RcBTmuWhiVfL-12" value="Platform &amp;amp; service tasks" style="rounded=1;whiteSpace=wrap;html=1;fillColor=#ffe6cc;strokeColor=#d79b00;" parent="1" vertex="1">
          <mxGeometry x="510" y="300" width="120" height="60" as="geometry" />
        </mxCell>
        <mxCell id="2TjgyCzb8Htl5xwf5OyU-23" style="edgeStyle=orthogonalEdgeStyle;rounded=1;orthogonalLoop=1;jettySize=auto;html=1;exitX=0;exitY=0.75;exitDx=0;exitDy=0;entryX=1;entryY=0.5;entryDx=0;entryDy=0;jumpStyle=none;" parent="1" source="O-F3Ail7RcBTmuWhiVfL-13" target="O-F3Ail7RcBTmuWhiVfL-4" edge="1">
          <mxGeometry relative="1" as="geometry" />
        </mxCell>
        <mxCell id="O-F3Ail7RcBTmuWhiVfL-13" value="Fire code compliance &amp;amp; maintaince" style="rounded=1;whiteSpace=wrap;html=1;fillColor=#ffe6cc;strokeColor=#d79b00;strokeWidth=3;" parent="1" vertex="1">
          <mxGeometry x="510" y="390" width="120" height="60" as="geometry" />
        </mxCell>
        <mxCell id="O-F3Ail7RcBTmuWhiVfL-14" value="Open Source Intellectual Assets" style="rounded=1;whiteSpace=wrap;html=1;fillColor=#e1d5e7;strokeColor=#9673a6;" parent="1" vertex="1">
          <mxGeometry x="128" y="410" width="120" height="60" as="geometry" />
        </mxCell>
        <mxCell id="O-F3Ail7RcBTmuWhiVfL-15" value="Proprietary Intellectual Assets" style="rounded=1;whiteSpace=wrap;html=1;fillColor=#e1d5e7;strokeColor=#9673a6;" parent="1" vertex="1">
          <mxGeometry x="128" y="200" width="120" height="60" as="geometry" />
        </mxCell>
        <mxCell id="O-F3Ail7RcBTmuWhiVfL-19" value="Software" style="rounded=1;whiteSpace=wrap;html=1;arcSize=50;fillColor=none;strokeColor=none;fontStyle=1;fontSize=15;" parent="1" vertex="1">
          <mxGeometry x="323" y="120" width="120" height="30" as="geometry" />
        </mxCell>
        <mxCell id="O-F3Ail7RcBTmuWhiVfL-21" value="IP, Rights &amp;amp; Patens" style="rounded=1;whiteSpace=wrap;html=1;arcSize=50;fillColor=none;strokeColor=none;fontStyle=1;fontSize=15;" parent="1" vertex="1">
          <mxGeometry x="128" y="130" width="120" height="30" as="geometry" />
        </mxCell>
        <mxCell id="2TjgyCzb8Htl5xwf5OyU-34" style="edgeStyle=orthogonalEdgeStyle;rounded=1;orthogonalLoop=1;jettySize=auto;html=1;strokeWidth=1;startArrow=none;startFill=0;exitX=0.5;exitY=0;exitDx=0;exitDy=0;" parent="1" source="2TjgyCzb8Htl5xwf5OyU-52" edge="1">
          <mxGeometry relative="1" as="geometry">
            <mxPoint x="767" y="60" as="targetPoint" />
            <mxPoint x="767" y="80" as="sourcePoint" />
          </mxGeometry>
        </mxCell>
        <mxCell id="O-F3Ail7RcBTmuWhiVfL-22" value="Regulation, Certification, Authorities" style="rounded=1;whiteSpace=wrap;html=1;arcSize=50;fillColor=none;strokeColor=none;fontStyle=1;fontSize=15;" parent="1" vertex="1">
          <mxGeometry x="707" y="120" width="120" height="50" as="geometry" />
        </mxCell>
        <mxCell id="2TjgyCzb8Htl5xwf5OyU-29" style="edgeStyle=orthogonalEdgeStyle;rounded=1;orthogonalLoop=1;jettySize=auto;html=1;exitX=0;exitY=0.5;exitDx=0;exitDy=0;entryX=1;entryY=0.5;entryDx=0;entryDy=0;" parent="1" source="O-F3Ail7RcBTmuWhiVfL-23" target="O-F3Ail7RcBTmuWhiVfL-13" edge="1">
          <mxGeometry relative="1" as="geometry" />
        </mxCell>
        <mxCell id="2TjgyCzb8Htl5xwf5OyU-31" style="edgeStyle=orthogonalEdgeStyle;rounded=0;orthogonalLoop=1;jettySize=auto;html=1;exitX=1;exitY=0.5;exitDx=0;exitDy=0;" parent="1" source="O-F3Ail7RcBTmuWhiVfL-23" target="O-F3Ail7RcBTmuWhiVfL-28" edge="1">
          <mxGeometry relative="1" as="geometry" />
        </mxCell>
        <mxCell id="O-F3Ail7RcBTmuWhiVfL-23" value="International Fire Regulations" style="rounded=1;whiteSpace=wrap;html=1;fillColor=#d5e8d4;strokeColor=#82b366;strokeWidth=3;" parent="1" vertex="1">
          <mxGeometry x="707" y="290" width="120" height="60" as="geometry" />
        </mxCell>
        <mxCell id="2TjgyCzb8Htl5xwf5OyU-27" style="edgeStyle=orthogonalEdgeStyle;rounded=0;orthogonalLoop=1;jettySize=auto;html=1;exitX=0.5;exitY=1;exitDx=0;exitDy=0;entryX=0.5;entryY=0;entryDx=0;entryDy=0;" parent="1" source="O-F3Ail7RcBTmuWhiVfL-24" target="O-F3Ail7RcBTmuWhiVfL-25" edge="1">
          <mxGeometry relative="1" as="geometry" />
        </mxCell>
        <mxCell id="O-F3Ail7RcBTmuWhiVfL-24" value="National BIM standards" style="rounded=1;whiteSpace=wrap;html=1;fillColor=#d5e8d4;strokeColor=#82b366;strokeWidth=3;" parent="1" vertex="1">
          <mxGeometry x="707" y="380" width="120" height="60" as="geometry" />
        </mxCell>
        <mxCell id="g0r0Y4DcRBQkHfUcTOGN-1" style="edgeStyle=orthogonalEdgeStyle;rounded=0;orthogonalLoop=1;jettySize=auto;html=1;exitX=0;exitY=0.75;exitDx=0;exitDy=0;entryX=0.5;entryY=1;entryDx=0;entryDy=0;" edge="1" parent="1" source="O-F3Ail7RcBTmuWhiVfL-25" target="O-F3Ail7RcBTmuWhiVfL-4">
          <mxGeometry relative="1" as="geometry" />
        </mxCell>
        <mxCell id="g0r0Y4DcRBQkHfUcTOGN-2" style="edgeStyle=orthogonalEdgeStyle;rounded=1;orthogonalLoop=1;jettySize=auto;html=1;exitX=0;exitY=0.25;exitDx=0;exitDy=0;entryX=1.008;entryY=0.383;entryDx=0;entryDy=0;entryPerimeter=0;" edge="1" parent="1" source="O-F3Ail7RcBTmuWhiVfL-25" target="O-F3Ail7RcBTmuWhiVfL-3">
          <mxGeometry relative="1" as="geometry">
            <Array as="points">
              <mxPoint x="680" y="485" />
              <mxPoint x="680" y="373" />
            </Array>
          </mxGeometry>
        </mxCell>
        <mxCell id="O-F3Ail7RcBTmuWhiVfL-25" value="International BIM standards" style="rounded=1;whiteSpace=wrap;html=1;fillColor=#d5e8d4;strokeColor=#82b366;strokeWidth=3;" parent="1" vertex="1">
          <mxGeometry x="707" y="470" width="120" height="60" as="geometry" />
        </mxCell>
        <mxCell id="2TjgyCzb8Htl5xwf5OyU-28" style="edgeStyle=orthogonalEdgeStyle;rounded=0;orthogonalLoop=1;jettySize=auto;html=1;exitX=0.5;exitY=1;exitDx=0;exitDy=0;entryX=0.5;entryY=0;entryDx=0;entryDy=0;" parent="1" source="O-F3Ail7RcBTmuWhiVfL-26" target="O-F3Ail7RcBTmuWhiVfL-23" edge="1">
          <mxGeometry relative="1" as="geometry" />
        </mxCell>
        <mxCell id="2TjgyCzb8Htl5xwf5OyU-30" style="edgeStyle=orthogonalEdgeStyle;rounded=1;orthogonalLoop=1;jettySize=auto;html=1;exitX=1;exitY=0.5;exitDx=0;exitDy=0;entryX=0;entryY=0.367;entryDx=0;entryDy=0;entryPerimeter=0;" parent="1" source="O-F3Ail7RcBTmuWhiVfL-26" target="O-F3Ail7RcBTmuWhiVfL-28" edge="1">
          <mxGeometry relative="1" as="geometry" />
        </mxCell>
        <mxCell id="2TjgyCzb8Htl5xwf5OyU-32" style="edgeStyle=orthogonalEdgeStyle;rounded=1;orthogonalLoop=1;jettySize=auto;html=1;exitX=1;exitY=0.75;exitDx=0;exitDy=0;entryX=0;entryY=0.5;entryDx=0;entryDy=0;" parent="1" source="O-F3Ail7RcBTmuWhiVfL-26" target="O-F3Ail7RcBTmuWhiVfL-30" edge="1">
          <mxGeometry relative="1" as="geometry">
            <Array as="points">
              <mxPoint x="840" y="245" />
              <mxPoint x="840" y="500" />
            </Array>
          </mxGeometry>
        </mxCell>
        <mxCell id="O-F3Ail7RcBTmuWhiVfL-26" value="National Fire Regulations" style="rounded=1;whiteSpace=wrap;html=1;fillColor=#d5e8d4;strokeColor=#82b366;strokeWidth=3;" parent="1" vertex="1">
          <mxGeometry x="707" y="200" width="120" height="60" as="geometry" />
        </mxCell>
        <mxCell id="2TjgyCzb8Htl5xwf5OyU-35" style="edgeStyle=orthogonalEdgeStyle;rounded=1;orthogonalLoop=1;jettySize=auto;html=1;exitX=0.5;exitY=0;exitDx=0;exitDy=0;entryX=1;entryY=0.5;entryDx=0;entryDy=0;strokeWidth=1;" parent="1" source="2TjgyCzb8Htl5xwf5OyU-53" target="O-F3Ail7RcBTmuWhiVfL-33" edge="1">
          <mxGeometry relative="1" as="geometry" />
        </mxCell>
        <mxCell id="O-F3Ail7RcBTmuWhiVfL-27" value="Consumer market&lt;br&gt;roles" style="rounded=1;whiteSpace=wrap;html=1;arcSize=50;fillColor=none;strokeColor=none;fontStyle=1;fontSize=15;" parent="1" vertex="1">
          <mxGeometry x="900" y="120" width="120" height="50" as="geometry" />
        </mxCell>
        <mxCell id="2TjgyCzb8Htl5xwf5OyU-41" style="edgeStyle=orthogonalEdgeStyle;rounded=0;orthogonalLoop=1;jettySize=auto;html=1;exitX=0.5;exitY=0;exitDx=0;exitDy=0;entryX=0.5;entryY=1;entryDx=0;entryDy=0;dashed=1;" parent="1" source="O-F3Ail7RcBTmuWhiVfL-28" target="O-F3Ail7RcBTmuWhiVfL-31" edge="1">
          <mxGeometry relative="1" as="geometry" />
        </mxCell>
        <mxCell id="O-F3Ail7RcBTmuWhiVfL-28" value="Fire consultants&lt;br&gt;(High Fire&amp;nbsp;Expertise)" style="rounded=1;whiteSpace=wrap;html=1;fillColor=#fff2cc;strokeColor=#d6b656;" parent="1" vertex="1">
          <mxGeometry x="900" y="290" width="120" height="60" as="geometry" />
        </mxCell>
        <mxCell id="2TjgyCzb8Htl5xwf5OyU-40" style="edgeStyle=orthogonalEdgeStyle;rounded=0;orthogonalLoop=1;jettySize=auto;html=1;exitX=0.5;exitY=0;exitDx=0;exitDy=0;entryX=0.5;entryY=1;entryDx=0;entryDy=0;dashed=1;" parent="1" source="O-F3Ail7RcBTmuWhiVfL-29" target="O-F3Ail7RcBTmuWhiVfL-28" edge="1">
          <mxGeometry relative="1" as="geometry" />
        </mxCell>
        <mxCell id="O-F3Ail7RcBTmuWhiVfL-29" value="Developers and Planners&lt;br&gt;(Low Fire Expertise)" style="rounded=1;whiteSpace=wrap;html=1;fillColor=#fff2cc;strokeColor=#d6b656;" parent="1" vertex="1">
          <mxGeometry x="900" y="380" width="120" height="60" as="geometry" />
        </mxCell>
        <mxCell id="2TjgyCzb8Htl5xwf5OyU-42" style="edgeStyle=orthogonalEdgeStyle;rounded=0;orthogonalLoop=1;jettySize=auto;html=1;exitX=0.5;exitY=0;exitDx=0;exitDy=0;entryX=0.5;entryY=1;entryDx=0;entryDy=0;" parent="1" source="O-F3Ail7RcBTmuWhiVfL-30" target="O-F3Ail7RcBTmuWhiVfL-29" edge="1">
          <mxGeometry relative="1" as="geometry" />
        </mxCell>
        <mxCell id="O-F3Ail7RcBTmuWhiVfL-30" value="Regulators &amp;amp; Authorities&lt;br&gt;(Low-High Fire Expertise)" style="rounded=1;whiteSpace=wrap;html=1;fillColor=#fff2cc;strokeColor=#d6b656;" parent="1" vertex="1">
          <mxGeometry x="900" y="470" width="120" height="60" as="geometry" />
        </mxCell>
        <mxCell id="O-F3Ail7RcBTmuWhiVfL-31" value="Architects &amp;amp; &lt;br&gt;Building Designers&lt;br&gt;(Low Fire Expertise)&amp;nbsp;" style="rounded=1;whiteSpace=wrap;html=1;fillColor=#fff2cc;strokeColor=#d6b656;" parent="1" vertex="1">
          <mxGeometry x="900" y="200" width="120" height="60" as="geometry" />
        </mxCell>
        <mxCell id="O-F3Ail7RcBTmuWhiVfL-32" value="&lt;font style=&quot;font-size: 15px&quot;&gt;End User&lt;/font&gt;" style="rounded=1;whiteSpace=wrap;html=1;arcSize=50;fillColor=none;strokeColor=none;fontColor=#333333;fontStyle=1" parent="1" vertex="1">
          <mxGeometry x="707" y="-30" width="120" height="50" as="geometry" />
        </mxCell>
        <mxCell id="2TjgyCzb8Htl5xwf5OyU-62" style="edgeStyle=orthogonalEdgeStyle;rounded=1;jumpStyle=none;orthogonalLoop=1;jettySize=auto;html=1;exitX=0;exitY=0.5;exitDx=0;exitDy=0;entryX=0.5;entryY=0;entryDx=0;entryDy=0;strokeColor=default;strokeWidth=1;" parent="1" source="O-F3Ail7RcBTmuWhiVfL-33" target="2TjgyCzb8Htl5xwf5OyU-50" edge="1">
          <mxGeometry relative="1" as="geometry" />
        </mxCell>
        <mxCell id="O-F3Ail7RcBTmuWhiVfL-33" value="Building owner" style="rounded=1;whiteSpace=wrap;html=1;fillColor=#f5f5f5;strokeColor=#666666;fontColor=#333333;" parent="1" vertex="1">
          <mxGeometry x="707" y="20" width="120" height="40" as="geometry" />
        </mxCell>
        <mxCell id="O-F3Ail7RcBTmuWhiVfL-34" style="edgeStyle=orthogonalEdgeStyle;rounded=0;orthogonalLoop=1;jettySize=auto;html=1;exitX=0.5;exitY=1;exitDx=0;exitDy=0;" parent="1" source="O-F3Ail7RcBTmuWhiVfL-33" target="O-F3Ail7RcBTmuWhiVfL-33" edge="1">
          <mxGeometry relative="1" as="geometry" />
        </mxCell>
        <mxCell id="WZhK_iISjF4VqVoh4DxO-2" value="" style="endArrow=classic;html=1;fontSize=15;" parent="1" edge="1">
          <mxGeometry width="50" height="50" relative="1" as="geometry">
            <mxPoint x="1090" y="140" as="sourcePoint" />
            <mxPoint x="1090" y="100" as="targetPoint" />
          </mxGeometry>
        </mxCell>
        <mxCell id="WZhK_iISjF4VqVoh4DxO-4" value="Academic/&lt;br&gt;research tasks" style="text;html=1;strokeColor=none;fillColor=none;align=left;verticalAlign=middle;whiteSpace=wrap;rounded=0;dashed=1;fontSize=15;" parent="1" vertex="1">
          <mxGeometry x="1110" y="110" width="40" height="20" as="geometry" />
        </mxCell>
        <mxCell id="WZhK_iISjF4VqVoh4DxO-5" value="" style="endArrow=classic;html=1;fontSize=15;dashed=1;" parent="1" edge="1">
          <mxGeometry width="50" height="50" relative="1" as="geometry">
            <mxPoint x="1090" y="210" as="sourcePoint" />
            <mxPoint x="1090" y="170" as="targetPoint" />
          </mxGeometry>
        </mxCell>
        <mxCell id="WZhK_iISjF4VqVoh4DxO-6" value="Company/&lt;br&gt;commercial&lt;br&gt;tasks" style="text;html=1;strokeColor=none;fillColor=none;align=left;verticalAlign=middle;whiteSpace=wrap;rounded=0;dashed=1;fontSize=15;" parent="1" vertex="1">
          <mxGeometry x="1110" y="180" width="40" height="20" as="geometry" />
        </mxCell>
        <mxCell id="WZhK_iISjF4VqVoh4DxO-8" value="" style="rounded=1;whiteSpace=wrap;html=1;fillColor=#dae8fc;strokeColor=#6c8ebf;strokeWidth=3;" parent="1" vertex="1">
          <mxGeometry x="1080" y="240" width="20" height="20" as="geometry" />
        </mxCell>
        <mxCell id="WZhK_iISjF4VqVoh4DxO-9" value="FireBIM ITEA funding" style="text;html=1;strokeColor=none;fillColor=none;align=left;verticalAlign=middle;whiteSpace=wrap;rounded=0;dashed=1;fontSize=15;" parent="1" vertex="1">
          <mxGeometry x="1110" y="240" width="40" height="20" as="geometry" />
        </mxCell>
      </root>
    </mxGraphModel>
  </diagram>
</mxfile>
